HIERARCHY
ROOT Hips
{
	OFFSET -3.958830 18.904000 13.208200
	CHANNELS 6 Xposition Yposition Zposition Zrotation Yrotation Xrotation 
	JOINT LHipJoint
	{
		OFFSET 0.000000 0.000000 0.000000
		CHANNELS 3 Zrotation Yrotation Xrotation
		JOINT LeftUpLeg
		{
			OFFSET 1.800000 -1.400000 0.085000
			CHANNELS 3 Zrotation Yrotation Xrotation
			JOINT LeftLeg
			{
				OFFSET 2.215000 -6.000000 0.000000
				CHANNELS 3 Zrotation Yrotation Xrotation
				JOINT LeftFoot
				{
					OFFSET 2.500000 -6.900000 0.000000
					CHANNELS 3 Zrotation Yrotation Xrotation
					JOINT LeftToeBase
					{
						OFFSET 0.200000 -0.500000 1.950000
						CHANNELS 3 Zrotation Yrotation Xrotation
						End Site
						{
							OFFSET 0.000000 0.000000 0.000000
						}
					}
				}
			}
		}
	}
	JOINT RHipJoint
	{
		OFFSET 0.000000 0.000000 0.000000
		CHANNELS 3 Zrotation Yrotation Xrotation
		JOINT RightUpLeg
		{
			OFFSET -1.800000 -1.400000 0.085000
			CHANNELS 3 Zrotation Yrotation Xrotation
			JOINT RightLeg
			{
				OFFSET -2.215000 -6.000000 0.000000
				CHANNELS 3 Zrotation Yrotation Xrotation
				JOINT RightFoot
				{
					OFFSET -2.500000 -6.900000 0.000000
					CHANNELS 3 Zrotation Yrotation Xrotation
					JOINT RightToeBase
					{
						OFFSET -0.200000 -0.500000 1.950000
						CHANNELS 3 Zrotation Yrotation Xrotation
						End Site
						{
							OFFSET 0.000000 0.000000 0.000000
						}
					}
				}
			}
		}
	}
	JOINT LowerBack
	{
		OFFSET 0.000000 0.000000 0.000000
		CHANNELS 3 Zrotation Yrotation Xrotation
		JOINT Spine
		{
			OFFSET -0.087000 1.940000 -0.288900
			CHANNELS 3 Zrotation Yrotation Xrotation
			JOINT Spine1
			{
				OFFSET 0.000000 1.950000 0.060000
				CHANNELS 3 Zrotation Yrotation Xrotation
				JOINT Neck
				{
					OFFSET 0.000000 0.000000 0.000000
					CHANNELS 3 Zrotation Yrotation Xrotation
					JOINT Neck1
					{
						OFFSET 0.000000 1.600000 0.340000
						CHANNELS 3 Zrotation Yrotation Xrotation
						JOINT Head
						{
							OFFSET 0.000000 1.667000 -0.240000
							CHANNELS 3 Zrotation Yrotation Xrotation
							End Site
							{
								OFFSET 0.000000 0.000000 0.000000
							}
						}
					}
				}
				JOINT LeftShoulder
				{
					OFFSET 0.000000 0.000000 0.000000
					CHANNELS 3 Zrotation Yrotation Xrotation
					JOINT LeftArm
					{
						OFFSET 2.700000 1.550000 -0.730000
						CHANNELS 3 Zrotation Yrotation Xrotation
						JOINT LeftForeArm
						{
							OFFSET 5.450000 0.000000 0.000000
							CHANNELS 3 Zrotation Yrotation Xrotation
							JOINT LeftHand
							{
								OFFSET 3.450000 0.000000 0.000000
								CHANNELS 3 Zrotation Yrotation Xrotation
								JOINT LeftHandIndex1
								{
									OFFSET 0.750000 0.000000 0.000000
									CHANNELS 3 Zrotation Yrotation Xrotation
									End Site
									{
										OFFSET 0.000000 0.000000 0.000000
									}
								}
							}
						}
					}
				}
				JOINT RightShoulder
				{
					OFFSET 0.000000 0.000000 0.000000
					CHANNELS 3 Zrotation Yrotation Xrotation
					JOINT RightArm
					{
						OFFSET -2.700000 1.550000 -0.730000
						CHANNELS 3 Zrotation Yrotation Xrotation
						JOINT RightForeArm
						{
							OFFSET -5.450000 0.000000 0.000000
							CHANNELS 3 Zrotation Yrotation Xrotation
							JOINT RightHand
							{
								OFFSET -3.450000 0.000000 0.000000
								CHANNELS 3 Zrotation Yrotation Xrotation
								JOINT RightHandIndex1
								{
									OFFSET -0.750000 0.000000 0.000000
									CHANNELS 3 Zrotation Yrotation Xrotation
									End Site
									{
										OFFSET 0.000000 0.000000 0.000000
									}
								}
							}
						}
					}
				}
			}
		}
	}
}
MOTION
Frames: 6
Frame Time: 0.016667
-0.694550 16.473650 -4.225990 -5.155889 -8.988939 4.278662 -15.918172 9.868541 6.326680 22.348397 -9.117698 -50.168329 -24.043886 25.782274 56.347037 1.344206 14.150019 -0.028887 -0.263040 -0.766650 -0.208440 18.425870 -6.217453 4.892554 13.158479 16.969598 -46.920179 -24.734029 5.038683 60.776546 -1.856031 -8.877094 1.384199 -0.662450 0.500680 0.502830 -2.949182 -4.159706 -10.491677 6.504770 -5.023245 49.241320 -0.652458 2.211513 -10.029241 3.581795 -6.427646 -15.087263 -18.376837 6.310311 41.065671 -1.439220 1.923150 -37.293800 -4.543991 -19.570272 3.444338 7.497180 -15.308708 -3.096178 2.087785 -24.873202 0.264416 -3.582116 2.398078 1.363620 -0.158460 0.328250 0.152770 -0.546208 26.442228 10.197196 3.758675 7.062699 -8.549680 57.851338 67.044807 35.803432 2.047460 -0.957951 -0.416810 0.443750 0.507070 -0.104780 
-0.685630 16.476660 -4.204210 -5.019320 -9.750145 4.123468 -15.865412 9.783195 6.351037 23.220681 -8.644501 -49.241960 -26.194926 26.644603 54.889513 1.427524 14.181592 -0.012325 -0.263830 -0.735660 -0.238570 18.471079 -6.316931 4.841704 12.610328 16.860120 -46.674866 -24.044539 4.606771 61.347372 -1.853222 -8.908631 1.391402 -0.653940 0.524610 0.494180 -3.111512 -3.862528 -10.459397 7.394611 -5.936811 49.118743 -1.975765 1.692192 -9.479219 3.601569 -6.622714 -15.638360 -18.654373 6.956028 40.331506 -0.624350 2.008990 -36.183330 -4.529257 -19.461347 4.159179 6.675431 -14.783994 -2.220660 1.484053 -18.618208 -0.014572 -3.650056 2.305444 1.318080 -0.143340 0.323090 0.174070 -0.580873 26.144954 10.471164 5.496313 7.026165 -8.614402 65.706964 71.796095 42.895269 2.153257 -0.876419 -0.395760 0.456860 0.493600 -0.067550 
-0.654650 16.514830 -4.160210 -4.900305 -11.312686 4.825808 -15.832541 9.678021 6.412651 24.439958 -7.734851 -48.479405 -29.254825 27.602288 52.166428 1.522487 14.137393 0.029463 -0.341840 -0.826390 -0.304790 18.504977 -6.330491 4.846866 11.235892 17.050935 -47.264900 -22.425212 3.605293 61.814632 -1.784532 -8.840898 1.412728 -0.726040 0.555390 0.508910 -3.252988 -3.643742 -10.482839 8.755479 -7.104799 48.285247 -3.564649 1.120935 -9.812121 4.152170 -6.593863 -16.528626 -18.623541 7.610591 40.083172 -2.063440 2.531230 -33.067310 -5.891725 -19.093895 5.343282 4.399017 -12.552153 -1.341373 0.953309 -12.182773 -0.439940 -3.757691 2.244333 1.267100 -0.117340 0.290630 0.164430 -0.164527 25.608929 10.977021 9.362052 7.643976 -7.903588 80.611503 77.193846 55.297245 2.648440 -0.105138 -0.374740 0.415160 0.527460 -0.039120 
-0.606410 16.569820 -4.109970 -4.819624 -12.520293 5.551093 -15.777743 9.486479 6.525267 26.138902 -6.848779 -47.658579 -32.972465 28.688762 49.124449 1.596096 14.113304 0.086219 -0.414290 -0.904100 -0.337190 18.555176 -6.476051 4.751966 8.162342 16.723061 -48.471974 -18.416732 0.793303 62.931761 -1.681405 -8.742592 1.455822 -0.769800 0.599530 0.490460 -3.448442 -3.133755 -10.482817 11.052081 -8.587451 46.573824 -6.056087 0.337620 -9.306712 4.600808 -5.603750 -16.511049 -15.805759 7.246596 39.910056 -4.947210 3.751530 -30.641250 -6.969253 -19.179482 6.893114 1.116433 -9.862244 -0.797503 2.040265 -6.519979 -0.905831 -3.879354 2.163980 1.223990 -0.072190 0.250370 0.158760 -0.442953 24.832589 9.756767 15.151973 6.718590 -10.945315 104.418403 74.229726 73.339553 3.073637 1.254435 -0.397920 0.426140 0.546550 -0.033140 
-0.560440 16.659790 -4.060190 -4.785684 -14.083042 5.805117 -15.726376 9.395871 6.609391 27.988561 -5.736051 -46.282336 -35.980626 29.439135 46.348817 1.630696 14.024504 0.123771 -0.432600 -0.899190 -0.378430 18.591518 -6.678456 4.564386 4.253826 15.951279 -48.835885 -12.974663 -2.997354 62.917626 -1.567068 -8.610673 1.492407 -0.762790 0.634970 0.497290 -3.625645 -2.704023 -10.412893 13.213811 -9.774924 45.239647 -7.944857 -0.293274 -7.732694 4.757816 -5.395476 -16.543464 -14.277146 7.189069 37.908939 -6.630390 4.608900 -28.826990 -8.136374 -18.920111 7.986383 -3.330515 -6.928855 -0.483888 3.676399 -2.851067 -1.077425 -3.963954 2.206735 1.158010 -0.023250 0.217340 0.169760 -0.019412 24.405381 9.420664 20.163837 5.339981 -13.822676 121.525569 70.197515 89.903775 2.478813 0.516467 -0.384820 0.415390 0.554680 -0.008910 
-0.524110 16.763380 -4.024950 -4.494257 -15.902228 4.885146 -15.652305 9.371350 6.581558 29.646647 -4.653420 -43.590086 -38.233886 30.324317 44.529615 1.615826 14.025764 0.104439 -0.334770 -0.738130 -0.334260 18.633283 -6.977895 4.312890 -0.690259 14.846079 -48.228480 -5.821446 -7.739463 62.195253 -1.532925 -8.739830 1.417831 -0.635840 0.656860 0.523070 -3.847666 -2.171122 -10.235159 15.042195 -10.559704 43.927399 -9.903050 -1.152234 -3.391973 4.662612 -5.475569 -15.842401 -13.021423 7.112766 34.274174 -8.190340 4.911050 -28.370080 -9.159875 -18.216833 8.301263 -7.238849 -4.763835 -0.208748 4.961713 -0.888084 -1.110756 -4.043308 2.281220 1.068870 0.045370 0.209990 0.195390 0.633889 23.278134 9.257489 24.939365 5.844108 -14.669206 133.932915 68.037189 101.485751 2.157403 -0.140219 -0.352280 0.439760 0.521320 0.011740 
